<?xml version="1.0" encoding="UTF-8" standalone="no" ?>
<!DOCTYPE svg PUBLIC "-//W3C//DTD SVG 1.1//EN" "http://www.w3.org/Graphics/SVG/1.1/DTD/svg11.dtd">
<svg xmlns="http://www.w3.org/2000/svg" xmlns:xlink="http://www.w3.org/1999/xlink" version="1.1" width="1080" height="1080" viewBox="0 0 1080 1080" xml:space="preserve">
<desc>Created with Fabric.js 5.2.4</desc>
<defs>
</defs>
<g transform="matrix(1 0 0 1 540 540)" id="5bd28772-cf65-47d0-814f-3fbe75bbf454"  >
<rect style="stroke: none; stroke-width: 1; stroke-dasharray: none; stroke-linecap: butt; stroke-dashoffset: 0; stroke-linejoin: miter; stroke-miterlimit: 4; fill: rgb(255,255,255); fill-rule: nonzero; opacity: 1; visibility: hidden;" vector-effect="non-scaling-stroke"  x="-540" y="-540" rx="0" ry="0" width="1080" height="1080" />
</g>
<g transform="matrix(1 0 0 1 540 540)" id="044e3795-0c0c-4db5-a94a-0d4fd1826364"  >
</g>
<g transform="matrix(13.85 0 0 13.85 540 540)"  >
<g style=""   >
		<g transform="matrix(1 0 0 1 -12.9 0)"  >
<path style="stroke: none; stroke-width: 1; stroke-dasharray: none; stroke-linecap: butt; stroke-dashoffset: 0; stroke-linejoin: miter; stroke-miterlimit: 4; fill: rgb(13,148,136); fill-rule: nonzero; opacity: 1;" vector-effect="non-scaling-stroke"  transform=" translate(-26.1, -15)" d="M 18.5147 0 C 15.4686 0 12.5473 1.21005 10.3934 3.36396 L 3.36396 10.3934 C 1.21005 12.5473 0 15.4686 0 18.5147 C 0 24.8579 5.14214 30 11.4853 30 C 14.5314 30 17.4527 28.7899 19.6066 26.636 L 24.4689 21.7737 C 24.469 21.7738 24.4689 21.7736 24.4689 21.7737 L 38.636 7.6066 C 39.6647 6.57791 41.0599 6 42.5147 6 C 44.9503 6 47.0152 7.58741 47.7311 9.78407 L 52.2022 5.31296 C 50.1625 2.11834 46.586 0 42.5147 0 C 39.4686 0 36.5473 1.21005 34.3934 3.36396 L 15.364 22.3934 C 14.3353 23.4221 12.9401 24 11.4853 24 C 8.45584 24 6 21.5442 6 18.5147 C 6 17.0599 6.57791 15.6647 7.6066 14.636 L 14.636 7.6066 C 15.6647 6.57791 17.0599 6 18.5147 6 C 20.9504 6 23.0152 7.58748 23.7311 9.78421 L 28.2023 5.31307 C 26.1626 2.1184 22.5861 0 18.5147 0 Z" stroke-linecap="round" />
</g>
		<g transform="matrix(1 0 0 1 12.9 0)"  >
<path style="stroke: none; stroke-width: 1; stroke-dasharray: none; stroke-linecap: butt; stroke-dashoffset: 0; stroke-linejoin: miter; stroke-miterlimit: 4; fill: rgb(13,148,136); fill-rule: nonzero; opacity: 1;" vector-effect="non-scaling-stroke"  transform=" translate(-51.9, -15)" d="M 39.364 22.3934 C 38.3353 23.4221 36.9401 24 35.4853 24 C 33.05 24 30.9853 22.413 30.2692 20.2167 L 25.7982 24.6877 C 27.838 27.8819 31.4143 30 35.4853 30 C 38.5314 30 41.4527 28.7899 43.6066 26.636 L 62.636 7.6066 C 63.6647 6.57791 65.0599 6 66.5147 6 C 69.5442 6 72 8.45584 72 11.4853 C 72 12.9401 71.4221 14.3353 70.3934 15.364 L 63.364 22.3934 C 62.3353 23.4221 60.9401 24 59.4853 24 C 57.0498 24 54.985 22.4127 54.269 20.2162 L 49.798 24.6873 C 51.8377 27.8818 55.4141 30 59.4853 30 C 62.5314 30 65.4527 28.7899 67.6066 26.636 L 74.636 19.6066 C 76.7899 17.4527 78 14.5314 78 11.4853 C 78 5.14214 72.8579 0 66.5147 0 C 63.4686 0 60.5473 1.21005 58.3934 3.36396 L 39.364 22.3934 Z" stroke-linecap="round" />
</g>
</g>
</g>
<g transform="matrix(NaN NaN NaN NaN 0 0)"  >
<g style=""   >
</g>
</g>
<g transform="matrix(NaN NaN NaN NaN 0 0)"  >
<g style=""   >
</g>
</g>
<g transform="matrix(NaN NaN NaN NaN 0 0)"  >
<g style=""   >
</g>
</g>
<g transform="matrix(NaN NaN NaN NaN 0 0)"  >
<g style=""   >
</g>
</g>
<g transform="matrix(NaN NaN NaN NaN 0 0)"  >
<g style=""   >
</g>
</g>
<g transform="matrix(NaN NaN NaN NaN 0 0)"  >
<g style=""   >
</g>
</g>
<g transform="matrix(NaN NaN NaN NaN 0 0)"  >
<g style=""   >
</g>
</g>
<g transform="matrix(NaN NaN NaN NaN 0 0)"  >
<g style=""   >
</g>
</g>
</svg>